HIERARCHY
ROOT hip
{
  OFFSET 0.00112043 5.09927 -9.65472
  CHANNELS 6 Xposition Yposition Zposition Zrotation Xrotation Yrotation
  JOINT abdomen
  {
    OFFSET 0 -1.186 -1.5018
    CHANNELS 3 Zrotation Xrotation Yrotation
    JOINT abdomen2
    {
      OFFSET 0 9.964 0.2134
      CHANNELS 3 Zrotation Xrotation Yrotation
      JOINT chest
      {
        OFFSET 0 13.134 -3.2573
        CHANNELS 3 Zrotation Xrotation Yrotation
        JOINT neck
        {
          OFFSET 0 20.686 -1.6905
          CHANNELS 3 Zrotation Xrotation Yrotation
          JOINT head
          {
            OFFSET 0 7.238 -0.1237
            CHANNELS 3 Zrotation Xrotation Yrotation
            End Site
            {
              OFFSET 0 0 0
            }
          }
        }
        JOINT lCollar
        {
          OFFSET 1.7069 20.075 5.0056
          CHANNELS 3 Zrotation Xrotation Yrotation
          JOINT lShldr
          {
            OFFSET 13.6458 -0.047 -4.849
            CHANNELS 3 Zrotation Xrotation Yrotation
            JOINT lForeArm
            {
              OFFSET 28.3255 -0.9759 2.2888
              CHANNELS 3 Zrotation Xrotation Yrotation
              JOINT lHand
              {
                OFFSET 22.1583 -0.53 10.8316
                CHANNELS 3 Zrotation Xrotation Yrotation
                JOINT lThumb1
                {
                  OFFSET 0.786 0.112 2.5817
                  CHANNELS 3 Zrotation Xrotation Yrotation
                  JOINT lThumb2
                  {
                    OFFSET 0.3601 -0.878 4.2331
                    CHANNELS 3 Zrotation Xrotation Yrotation
                    JOINT lThumb2_End
                    {
                      OFFSET 1.8127 -1.216 2.2227
                      CHANNELS 3 Zrotation Xrotation Yrotation
                      End Site
                      {
                        OFFSET 0.0181 -0.0122 0.0222
                      }
                    }
                  }
                }
                JOINT lCarpal1
                {
                  OFFSET 0.9571 1.114 1.7695
                  CHANNELS 3 Zrotation Xrotation Yrotation
                  JOINT lIndex1
                  {
                    OFFSET 4.1246 0.487 4.1451
                    CHANNELS 3 Zrotation Xrotation Yrotation
                    JOINT lIndex2
                    {
                      OFFSET 3.4052 -1.454 2.7682
                      CHANNELS 3 Zrotation Xrotation Yrotation
                      JOINT lIndex2_End
                      {
                        OFFSET 1.4531 -1.795 1.2713
                        CHANNELS 3 Zrotation Xrotation Yrotation
                        End Site
                        {
                          OFFSET 0.0145 -0.0179 0.0127
                        }
                      }
                    }
                  }
                  JOINT lMid1
                  {
                    OFFSET 5.6954 0.21 2.1184
                    CHANNELS 3 Zrotation Xrotation Yrotation
                    JOINT lMid2
                    {
                      OFFSET 3.9766 -1.54 2.3863
                      CHANNELS 3 Zrotation Xrotation Yrotation
                      JOINT lMid2_End
                      {
                        OFFSET 1.4042 -1.926 1.125
                        CHANNELS 3 Zrotation Xrotation Yrotation
                        End Site
                        {
                          OFFSET 0.014 -0.0193 0.0113
                        }
                      }
                    }
                  }
                }
                JOINT lCarpal2
                {
                  OFFSET 2.0956 0.66 -0.3894
                  CHANNELS 3 Zrotation Xrotation Yrotation
                  JOINT lRing1
                  {
                    OFFSET 5.0395 -0.09 2.4971
                    CHANNELS 3 Zrotation Xrotation Yrotation
                    JOINT lRing2
                    {
                      OFFSET 3.7921 -1.552 1.4806
                      CHANNELS 3 Zrotation Xrotation Yrotation
                      JOINT lRing2_End
                      {
                        OFFSET 1.4655 -1.808 0.9609
                        CHANNELS 3 Zrotation Xrotation Yrotation
                        End Site
                        {
                          OFFSET 0.0147 -0.0181 0.0096
                        }
                      }
                    }
                  }
                  JOINT lPinky1
                  {
                    OFFSET 4.9141 -1.269 0.3591
                    CHANNELS 3 Zrotation Xrotation Yrotation
                    JOINT lPinky2
                    {
                      OFFSET 3.1477 -1.685 0.8462
                      CHANNELS 3 Zrotation Xrotation Yrotation
                      JOINT lPinky2_End
                      {
                        OFFSET 0.8055 -1.585 0.7955
                        CHANNELS 3 Zrotation Xrotation Yrotation
                        End Site
                        {
                          OFFSET 0.0081 -0.0158 0.008
                        }
                      }
                    }
                  }
                }
              }
            }
          }
        }
        JOINT rCollar
        {
          OFFSET -1.7069 20.075 5.0056
          CHANNELS 3 Zrotation Xrotation Yrotation
          JOINT rShldr
          {
            OFFSET -13.6458 -0.047 -4.849
            CHANNELS 3 Zrotation Xrotation Yrotation
            JOINT rForeArm
            {
              OFFSET -28.3255 -0.9759 2.2888
              CHANNELS 3 Zrotation Xrotation Yrotation
              JOINT rHand
              {
                OFFSET -22.1583 -0.53 10.8316
                CHANNELS 3 Zrotation Xrotation Yrotation
                JOINT rThumb1
                {
                  OFFSET -0.786 0.112 2.5817
                  CHANNELS 3 Zrotation Xrotation Yrotation
                  JOINT rThumb2
                  {
                    OFFSET -0.3601 -0.878 4.2331
                    CHANNELS 3 Zrotation Xrotation Yrotation
                    JOINT rThumb2_End
                    {
                      OFFSET -1.8127 -1.216 2.2227
                      CHANNELS 3 Zrotation Xrotation Yrotation
                      End Site
                      {
                        OFFSET -0.0181 -0.0122 0.0222
                      }
                    }
                  }
                }
                JOINT rCarpal1
                {
                  OFFSET -0.9571 1.114 1.7695
                  CHANNELS 3 Zrotation Xrotation Yrotation
                  JOINT rIndex1
                  {
                    OFFSET -4.1246 0.487 4.1451
                    CHANNELS 3 Zrotation Xrotation Yrotation
                    JOINT rIndex2
                    {
                      OFFSET -3.4052 -1.454 2.7682
                      CHANNELS 3 Zrotation Xrotation Yrotation
                      JOINT rIndex2_End
                      {
                        OFFSET -1.4531 -1.795 1.2713
                        CHANNELS 3 Zrotation Xrotation Yrotation
                        End Site
                        {
                          OFFSET -0.0145 -0.018 0.0127
                        }
                      }
                    }
                  }
                  JOINT rMid1
                  {
                    OFFSET -5.6954 0.21 2.1184
                    CHANNELS 3 Zrotation Xrotation Yrotation
                    JOINT rMid2
                    {
                      OFFSET -3.9766 -1.54 2.3863
                      CHANNELS 3 Zrotation Xrotation Yrotation
                      JOINT rMid2_End
                      {
                        OFFSET -1.4042 -1.926 1.125
                        CHANNELS 3 Zrotation Xrotation Yrotation
                        End Site
                        {
                          OFFSET -0.014 -0.0193 0.0113
                        }
                      }
                    }
                  }
                }
                JOINT rCarpal2
                {
                  OFFSET -2.0956 0.66 -0.3894
                  CHANNELS 3 Zrotation Xrotation Yrotation
                  JOINT rRing1
                  {
                    OFFSET -5.0395 -0.09 2.4971
                    CHANNELS 3 Zrotation Xrotation Yrotation
                    JOINT rRing2
                    {
                      OFFSET -3.7921 -1.552 1.4806
                      CHANNELS 3 Zrotation Xrotation Yrotation
                      JOINT rRing2_End
                      {
                        OFFSET -1.4655 -1.808 0.9609
                        CHANNELS 3 Zrotation Xrotation Yrotation
                        End Site
                        {
                          OFFSET -0.0147 -0.0181 0.0096
                        }
                      }
                    }
                  }
                  JOINT rPinky1
                  {
                    OFFSET -4.9141 -1.269 0.3592
                    CHANNELS 3 Zrotation Xrotation Yrotation
                    JOINT rPinky2
                    {
                      OFFSET -3.1477 -1.685 0.8462
                      CHANNELS 3 Zrotation Xrotation Yrotation
                      JOINT rPinky2_End
                      {
                        OFFSET -0.8055 -1.585 0.7955
                        CHANNELS 3 Zrotation Xrotation Yrotation
                        End Site
                        {
                          OFFSET -0.0081 -0.0158 0.008
                        }
                      }
                    }
                  }
                }
              }
            }
          }
        }
      }
    }
  }
  JOINT lThigh
  {
    OFFSET 8.367 -8.2066 0.5982
    CHANNELS 3 Zrotation Xrotation Yrotation
    JOINT lShin
    {
      OFFSET 2.1923 -43.463 -0.4932
      CHANNELS 3 Zrotation Xrotation Yrotation
      JOINT lFoot
      {
        OFFSET 0.7333 -45.8593 -2.6451
        CHANNELS 3 Zrotation Xrotation Yrotation
        End Site
        {
          OFFSET 2.6618 -4.2699 12.3931
        }
      }
    }
  }
  JOINT rThigh
  {
    OFFSET -8.367 -8.2066 0.5982
    CHANNELS 3 Zrotation Xrotation Yrotation
    JOINT rShin
    {
      OFFSET -2.1923 -43.463 -0.4931
      CHANNELS 3 Zrotation Xrotation Yrotation
      JOINT rFoot
      {
        OFFSET -0.7333 -45.8593 -2.6451
        CHANNELS 3 Zrotation Xrotation Yrotation
        End Site
        {
          OFFSET -2.6618 -4.2699 12.3931
        }
      }
    }
  }
}
MOTION
Frames:	6
Frame Time:	0.0333333
0 91.7903 2.51682 0 0 -0 0 0 -0 0 0 -0 0 0 -0 0 0 -0 0 0 -0 0 0 -0 1.66051 0.0835086 5.75766 -0.0175111 0.895433 15.7816 7.95139e-016 -1.98785e-016 -0 5.46658e-016 -3.97569e-016 -0 5.96354e-016 0 -0 3.97569e-016 1.98785e-016 9.54166e-015 1.49089e-016 -3.97569e-016 -0 6.4605e-016 0 3.18055e-015 5.96354e-016 0 3.18055e-015 8.94531e-016 -1.98785e-016 6.36111e-015 6.4605e-016 0 3.18055e-015 5.96354e-016 0 3.18055e-015 8.94531e-016 -1.98785e-016 6.36111e-015 1.49089e-016 -3.97569e-016 -0 6.4605e-016 0 3.18055e-015 5.96354e-016 0 3.18055e-015 8.94531e-016 -1.98785e-016 6.36111e-015 6.4605e-016 0 3.18055e-015 5.96354e-016 0 3.18055e-015 8.94531e-016 -1.98785e-016 6.36111e-015 0 0 -0 -1.4496 0.0636048 -5.0245 -1.74811 1.20616 -16.8394 -1.19271e-015 1.98785e-016 -3.18055e-015 -3.97569e-016 1.98785e-016 -3.18055e-015 -2.98177e-016 1.98785e-016 -3.18055e-015 -2.98177e-016 3.97569e-016 -0 4.96962e-016 0 -6.36111e-015 -9.93923e-017 3.97569e-016 -0 -8.94531e-016 5.96354e-016 -0 -3.97569e-016 3.97569e-016 -0 -9.93923e-017 3.97569e-016 -0 -8.94531e-016 5.96354e-016 -0 -3.97569e-016 3.97569e-016 -0 4.96962e-016 0 -6.36111e-015 -9.93923e-017 3.97569e-016 -0 -8.94531e-016 5.96354e-016 -0 -3.97569e-016 3.97569e-016 -0 -9.93923e-017 3.97569e-016 -0 -8.94531e-016 5.96354e-016 -0 -3.97569e-016 3.97569e-016 -0 -4.66111 -0.998717 0.12318 0.00986924 1.54847 0.176523 4.65186 -0.572283 -0.254274 4.66111 -0.998765 -0.123176 -0.00986867 1.54869 -0.176537 -4.65186 -0.572453 0.25427 
0.000852999 2.7308 -9.87122 -180 -81.997 -180 -0.0393469 0.932514 -0.146747 -0.0763198 1.86513 -0.292912 -0.0763198 1.86513 -0.292912 1.20018e-005 39.9979 -1.77675e-005 7.3777e-009 8.99857 1.02706e-008 -23.6186 7.4321 -4.194 -54.8415 -11.1396 -24.9505 -4.65514 35.9079 15.8612 -60.433 -42.4167 12.3151 -2.62515e-006 -6.24796e-007 -1.43621e-006 -2.62515e-006 -6.24796e-007 -1.43621e-006 -3.24994e-006 2.00035e-006 -2.95884e-006 1.76556e-031 3.18055e-015 -3.18055e-015 -2.62515e-006 -6.24796e-007 -1.43621e-006 -2.62515e-006 -6.24796e-007 -1.43621e-006 -3.24994e-006 2.00035e-006 -2.95884e-006 -2.62515e-006 -6.24796e-007 -1.43621e-006 -2.62515e-006 -6.24796e-007 -1.43621e-006 -3.24994e-006 2.00035e-006 -2.95884e-006 1.76556e-031 3.18055e-015 -3.18055e-015 -2.62515e-006 -6.24796e-007 -1.43621e-006 -2.62515e-006 -6.24796e-007 -1.43621e-006 -3.24994e-006 2.00035e-006 -2.95884e-006 -2.62515e-006 -6.24796e-007 -1.43621e-006 -2.62515e-006 -6.24796e-007 -1.43621e-006 -3.24994e-006 2.00035e-006 -2.95884e-006 26.0621 7.28176 5.72454 53.2555 -12.0007 24.9118 1.89578 36.0585 -15.7766 59.4142 -40.7568 -15.6935 6.38429e-007 2.60723e-006 1.56292e-006 6.38429e-007 2.60723e-006 1.56292e-006 -9.54166e-015 -6.36111e-015 -3.18055e-015 9.54166e-015 -3.18055e-015 6.36111e-015 6.38429e-007 2.60723e-006 1.56292e-006 6.38429e-007 2.60723e-006 1.56292e-006 -0 0 3.18055e-015 6.38429e-007 2.60723e-006 1.56292e-006 6.38429e-007 2.60723e-006 1.56292e-006 -0 0 3.18055e-015 9.54166e-015 -3.18055e-015 6.36111e-015 6.38429e-007 2.60723e-006 1.56292e-006 6.38429e-007 2.60723e-006 1.56292e-006 -0 0 3.18055e-015 6.38429e-007 2.60723e-006 1.56292e-006 6.38429e-007 2.60723e-006 1.56292e-006 -0 0 3.18055e-015 21.652 -21.2591 48.9612 56.6408 49.7579 -43.5008 1.3042 23.2919 8.73687 -21.6703 -21.2561 -48.9845 -56.6855 49.7452 43.5501 -1.31508 23.2834 -8.74824 
0.000885187 3.0242 -9.84802 -180 -82.7732 -180 -0.0380921 0.689298 -0.147229 -0.0744205 1.37868 -0.294031 -0.0744206 1.37869 -0.294031 2.21083e-005 39.9979 -4.9355e-005 0.0362903 8.82154 0.0380616 -23.0776 8.08244 -3.53329 -55.3128 -10.8643 -25.122 -5.19311 35.9514 15.9154 -60.0094 -42.3671 12.2735 -1.76556e-031 3.18055e-015 3.18055e-015 -2.86741e-006 8.53628e-007 -4.43499e-006 -3.24666e-006 2.00167e-006 -2.9613e-006 6.36111e-015 0 6.36111e-015 -9.54166e-015 1.59028e-014 3.18055e-015 -2.86741e-006 8.53628e-007 -4.43499e-006 -3.24666e-006 2.00167e-006 -2.9613e-006 -9.54166e-015 1.59028e-014 3.18055e-015 -2.86741e-006 8.53628e-007 -4.43499e-006 -3.24666e-006 2.00167e-006 -2.9613e-006 6.36111e-015 0 6.36111e-015 -9.54166e-015 1.59028e-014 3.18055e-015 -2.86741e-006 8.53628e-007 -4.43499e-006 -3.24666e-006 2.00167e-006 -2.9613e-006 -9.54166e-015 1.59028e-014 3.18055e-015 -2.86741e-006 8.53628e-007 -4.43499e-006 -3.24666e-006 2.00167e-006 -2.9613e-006 25.395 7.91984 4.96945 53.8249 -11.6779 25.1335 2.49349 36.101 -15.8402 59.0257 -40.7626 -15.5478 -6.36111e-015 -3.18055e-015 -0 2.60704e-006 -6.36915e-007 1.41639e-006 -3.18055e-015 -3.18055e-015 3.18055e-015 -6.36111e-015 3.18055e-015 -0 -1.90833e-014 3.18055e-015 1.27222e-014 2.60704e-006 -6.36915e-007 1.41639e-006 -3.18055e-015 -3.18055e-015 -6.36111e-015 -1.90833e-014 3.18055e-015 1.27222e-014 2.60704e-006 -6.36915e-007 1.41639e-006 -3.18055e-015 -3.18055e-015 -6.36111e-015 -6.36111e-015 3.18055e-015 -0 -1.90833e-014 3.18055e-015 1.27222e-014 2.60704e-006 -6.36915e-007 1.41639e-006 -3.18055e-015 -3.18055e-015 -6.36111e-015 -1.90833e-014 3.18055e-015 1.27222e-014 2.60704e-006 -6.36915e-007 1.41639e-006 -3.18055e-015 -3.18055e-015 -6.36111e-015 21.6512 -21.8673 49.0397 56.6404 49.7575 -43.4973 1.07627 23.2177 8.8955 -21.6698 -21.8643 -49.0627 -56.685 49.7448 43.5465 -1.08656 23.2092 -8.90695 
0.000919029 3.31737 -9.82382 -180 -83.5498 -180 -0.0369039 0.445634 -0.147596 -0.0726628 0.891389 -0.294917 -0.0726629 0.891371 -0.294917 5.04722e-005 39.9978 -0.00011237 0.072701 8.64446 0.0762378 -22.5425 8.73989 -2.87674 -55.7829 -10.5874 -25.2911 -5.73161 35.9945 15.9702 -59.586 -42.3177 12.2314 -2.62333e-006 -6.20181e-007 -1.43064e-006 -3.86369e-006 4.62647e-006 -4.49636e-006 -2.62333e-006 -6.20181e-007 -1.43064e-006 3.18055e-015 -6.36111e-015 -3.18055e-015 -2.62333e-006 -6.20181e-007 -1.43064e-006 -3.86369e-006 4.62647e-006 -4.49636e-006 -2.62333e-006 -6.20181e-007 -1.43064e-006 -2.62333e-006 -6.20181e-007 -1.43064e-006 -3.86369e-006 4.62647e-006 -4.49636e-006 -2.62333e-006 -6.20181e-007 -1.43064e-006 3.18055e-015 -6.36111e-015 -3.18055e-015 -2.62333e-006 -6.20181e-007 -1.43064e-006 -3.86369e-006 4.62647e-006 -4.49636e-006 -2.62333e-006 -6.20181e-007 -1.43064e-006 -2.62333e-006 -6.20181e-007 -1.43064e-006 -3.86369e-006 4.62647e-006 -4.49636e-006 -2.62333e-006 -6.20181e-007 -1.43064e-006 24.7341 8.56778 4.21926 54.3926 -11.3527 25.3518 3.09181 36.143 -15.9043 58.637 -40.7691 -15.4021 -3.87784e-006 -4.57868e-006 -4.55337e-006 -2.60704e-006 6.35402e-007 -1.41334e-006 -2.60704e-006 6.35402e-007 -1.41334e-006 0 0 -3.18055e-015 -3.87784e-006 -4.57868e-006 -4.55337e-006 -2.60704e-006 6.35402e-007 -1.41334e-006 -2.60704e-006 6.35402e-007 -1.41334e-006 -3.87784e-006 -4.57868e-006 -4.55337e-006 -2.60704e-006 6.35402e-007 -1.41334e-006 -2.60704e-006 6.35402e-007 -1.41334e-006 0 0 -3.18055e-015 -3.87784e-006 -4.57868e-006 -4.55337e-006 -2.60704e-006 6.35402e-007 -1.41334e-006 -2.60704e-006 6.35402e-007 -1.41334e-006 -3.87784e-006 -4.57868e-006 -4.55337e-006 -2.60704e-006 6.35402e-007 -1.41334e-006 -2.60704e-006 6.35402e-007 -1.41334e-006 21.6515 -22.4762 49.1185 56.6403 49.7573 -43.4942 0.848515 23.143 9.0538 -21.6704 -22.4731 -49.1412 -56.6849 49.7445 43.5435 -0.858207 23.1343 -9.06539 
0.000954606 3.61029 -9.79862 -180 -84.327 -180 -0.0357208 0.201682 -0.147979 -0.0709212 0.403454 -0.295834 -0.0709211 0.403456 -0.295835 -6.46682e-006 39.9979 2.73513e-005 0.109232 8.46731 0.11453 -22.0134 9.40378 -2.22437 -56.252 -10.3092 -25.4577 -6.27057 36.0372 16.0255 -59.1629 -42.2685 12.1888 -9.54166e-015 -6.36111e-015 1.27222e-014 -6.36111e-015 -6.36111e-015 -3.18055e-015 -9.54166e-015 -3.18055e-015 -0 -6.36111e-015 -6.36111e-015 9.54166e-015 -1.27222e-014 -6.36111e-015 1.27222e-014 -3.18055e-015 -6.36111e-015 -0 -3.18055e-015 0 -3.18055e-015 -1.27222e-014 -6.36111e-015 1.27222e-014 -3.18055e-015 -6.36111e-015 -0 -3.18055e-015 0 -3.18055e-015 -6.36111e-015 -6.36111e-015 9.54166e-015 -1.27222e-014 -6.36111e-015 1.27222e-014 -3.18055e-015 -6.36111e-015 -0 -3.18055e-015 0 -3.18055e-015 -1.27222e-014 -6.36111e-015 1.27222e-014 -3.18055e-015 -6.36111e-015 -0 -3.18055e-015 0 -3.18055e-015 24.0796 9.22499 3.47443 54.9586 -11.0253 25.5666 3.69073 36.1844 -15.9691 58.2482 -40.7764 -15.2564 3.53113e-031 -3.18055e-015 6.36111e-015 -2.60723e-006 6.33887e-007 -1.41033e-006 -9.54166e-015 -3.18055e-015 3.18055e-015 -0 0 6.36111e-015 -3.18055e-015 -9.54166e-015 1.27222e-014 -2.60723e-006 6.33887e-007 -1.41033e-006 3.18055e-015 0 3.18055e-015 -3.18055e-015 -9.54166e-015 1.27222e-014 -2.60723e-006 6.33887e-007 -1.41033e-006 3.18055e-015 0 3.18055e-015 -0 0 6.36111e-015 -3.18055e-015 -9.54166e-015 1.27222e-014 -2.60723e-006 6.33887e-007 -1.41033e-006 3.18055e-015 0 3.18055e-015 -3.18055e-015 -9.54166e-015 1.27222e-014 -2.60723e-006 6.33887e-007 -1.41033e-006 3.18055e-015 0 3.18055e-015 21.6529 -23.0852 49.1977 56.6402 49.7571 -43.4913 0.620927 23.0677 9.21172 -21.672 -23.0822 -49.2201 -56.6849 49.7443 43.5406 -0.630022 23.059 -9.22346 
0.000985287 3.90292 -9.77243 -180 -85.1047 -180 -0.0344672 -0.0426061 -0.148057 -0.0690444 -0.0851186 -0.29614 -0.0690444 -0.0851315 -0.29614 0.00080532 39.9979 -0.00171814 0.145885 8.29008 0.152938 -21.4904 10.0749 -1.57757 -56.7199 -10.0295 -25.6219 -6.81004 36.0795 16.0814 -58.7399 -42.2195 12.1458 -3.18055e-015 3.18055e-015 -0 6.36111e-015 0 -6.36111e-015 -3.18055e-015 3.18055e-015 -0 -3.18055e-015 0 -0 3.18055e-015 0 6.36111e-015 -0 0 3.18055e-015 3.53113e-031 -3.18055e-015 6.36111e-015 3.18055e-015 0 6.36111e-015 -0 0 3.18055e-015 3.53113e-031 -3.18055e-015 6.36111e-015 -3.18055e-015 0 -0 3.18055e-015 0 6.36111e-015 -0 0 3.18055e-015 3.53113e-031 -3.18055e-015 6.36111e-015 3.18055e-015 0 6.36111e-015 -0 0 3.18055e-015 3.53113e-031 -3.18055e-015 6.36111e-015 23.4315 9.89088 2.73342 55.523 -10.6957 25.778 4.29018 36.2253 -16.0344 57.8593 -40.7843 -15.1107 -3.18055e-015 3.18055e-015 9.54166e-015 3.18055e-015 6.36111e-015 6.36111e-015 3.18055e-015 3.18055e-015 3.18055e-015 -3.18055e-015 0 9.54166e-015 -9.54166e-015 -3.18055e-015 9.54166e-015 -3.53113e-031 6.36111e-015 3.18055e-015 -6.36111e-015 3.18055e-015 -0 -9.54166e-015 -3.18055e-015 9.54166e-015 -3.53113e-031 6.36111e-015 3.18055e-015 -6.36111e-015 3.18055e-015 -0 -3.18055e-015 0 9.54166e-015 -9.54166e-015 -3.18055e-015 9.54166e-015 -3.53113e-031 6.36111e-015 3.18055e-015 -6.36111e-015 3.18055e-015 -0 -9.54166e-015 -3.18055e-015 9.54166e-015 -3.53113e-031 6.36111e-015 3.18055e-015 -6.36111e-015 3.18055e-015 -0 21.6554 -23.6945 49.2772 56.6404 49.757 -43.4887 0.393497 22.9918 9.36931 -21.6748 -23.6915 -49.2994 -56.6851 49.7442 43.5379 -0.402036 22.9831 -9.38114 
